HIERARCHY
ROOT hip
{
  OFFSET 0 0 0
  CHANNELS 6 Xposition Yposition Zposition Zrotation Yrotation Xrotation
  JOINT abdomen
  {
    OFFSET 0 20.6881 -0.73152
    CHANNELS 3 Zrotation Xrotation Yrotation
    JOINT chest
    {
      OFFSET 0 11.7043 -0.48768
      CHANNELS 3 Zrotation Xrotation Yrotation
      JOINT neck
      {
        OFFSET 0 22.1894 -2.19456
        CHANNELS 3 Zrotation Xrotation Yrotation
        JOINT head
        {
          OFFSET -0.24384 7.07133 1.2192
          CHANNELS 3 Zrotation Xrotation Yrotation
          JOINT leftEye
          {
            OFFSET 4.14528 8.04674 8.04672
            CHANNELS 3 Zrotation Xrotation Yrotation
            End Site
            {
              OFFSET 1 0 0
            }
          }
          JOINT rightEye
          {
            OFFSET -3.6576 8.04674 8.04672
            CHANNELS 3 Zrotation Xrotation Yrotation
            End Site
            {
              OFFSET 1 0 0
            }
          }
        }
      }
      JOINT rCollar
      {
        OFFSET -2.68224 19.2634 -4.8768
        CHANNELS 3 Zrotation Xrotation Yrotation
        JOINT rShldr
        {
          OFFSET -8.77824 -1.95073 1.46304
          CHANNELS 3 Zrotation Xrotation Yrotation
          JOINT rForeArm
          {
            OFFSET -28.1742 -1.7115 0.48768
            CHANNELS 3 Zrotation Xrotation Yrotation
            JOINT rHand
            {
              OFFSET -22.5879 0.773209 7.07136
              CHANNELS 3 Zrotation Xrotation Yrotation
              JOINT rThumb1
              {
                OFFSET -1.2192 -0.487915 3.41376
                CHANNELS 3 Zrotation Xrotation Yrotation
                JOINT rThumb2
                {
                  OFFSET -3.37035 -0.52449 3.41376
                  CHANNELS 3 Zrotation Xrotation Yrotation
                  End Site
                  {
                    OFFSET -1.78271 -1.18214 1.43049
                  }
                }
              }
              JOINT rIndex1
              {
                OFFSET -7.75947 0.938293 5.60832
                CHANNELS 3 Zrotation Xrotation Yrotation
                JOINT rIndex2
                {
                  OFFSET -2.54057 -0.884171 1.56538
                  CHANNELS 3 Zrotation Xrotation Yrotation
                  End Site
                  {
                    OFFSET -1.62519 -0.234802 1.16502
                  }
                }
              }
              JOINT rMid1
              {
                OFFSET -8.24714 1.18213 3.41376
                CHANNELS 3 Zrotation Xrotation Yrotation
                JOINT rMid2
                {
                  OFFSET -3.10165 -0.590103 1.0647
                  CHANNELS 3 Zrotation Xrotation Yrotation
                  End Site
                  {
                    OFFSET -2.48547 -0.328903 0.83742
                  }
                }
              }
              JOINT rRing1
              {
                OFFSET -8.82822 0.546677 1.51678
                CHANNELS 3 Zrotation Xrotation Yrotation
                JOINT rRing2
                {
                  OFFSET -2.60934 -0.819778 -0.0198488
                  CHANNELS 3 Zrotation Xrotation Yrotation
                  End Site
                  {
                    OFFSET -2.33842 -0.294052 0.168128
                  }
                }
              }
              JOINT rPinky1
              {
                OFFSET -8.27202 -0.0477905 -0.4584
                CHANNELS 3 Zrotation Xrotation Yrotation
                JOINT rPinky2
                {
                  OFFSET -1.82734 -0.647385 -0.700984
                  CHANNELS 3 Zrotation Xrotation Yrotation
                  End Site
                  {
                    OFFSET -1.69225 -0.51767 -0.607171
                  }
                }
              }
            }
          }
        }
      }
      JOINT lCollar
      {
        OFFSET 2.68224 19.2634 -4.8768
        CHANNELS 3 Zrotation Xrotation Yrotation
        JOINT lShldr
        {
          OFFSET 8.77824 -1.95073 1.46304
          CHANNELS 3 Zrotation Xrotation Yrotation
          JOINT lForeArm
          {
            OFFSET 28.1742 -1.7115 0.48768
            CHANNELS 3 Zrotation Xrotation Yrotation
            JOINT lHand
            {
              OFFSET 22.5879 0.773209 7.07136
              CHANNELS 3 Zrotation Xrotation Yrotation
              JOINT lThumb1
              {
                OFFSET 1.2192 -0.487915 3.41376
                CHANNELS 3 Zrotation Xrotation Yrotation
                JOINT lThumb2
                {
                  OFFSET 3.37035 -0.52449 3.41376
                  CHANNELS 3 Zrotation Xrotation Yrotation
                  End Site
                  {
                    OFFSET 1.78271 -1.18214 1.43049
                  }
                }
              }
              JOINT lIndex1
              {
                OFFSET 7.75947 0.938293 5.60832
                CHANNELS 3 Zrotation Xrotation Yrotation
                JOINT lIndex2
                {
                  OFFSET 2.54057 -0.884171 1.56538
                  CHANNELS 3 Zrotation Xrotation Yrotation
                  End Site
                  {
                    OFFSET 1.62519 -0.234802 1.16502
                  }
                }
              }
              JOINT lMid1
              {
                OFFSET 8.24714 1.18213 3.41376
                CHANNELS 3 Zrotation Xrotation Yrotation
                JOINT lMid2
                {
                  OFFSET 3.10165 -0.590103 1.0647
                  CHANNELS 3 Zrotation Xrotation Yrotation
                  End Site
                  {
                    OFFSET 2.48547 -0.328903 0.83742
                  }
                }
              }
              JOINT lRing1
              {
                OFFSET 8.82822 0.546677 1.51678
                CHANNELS 3 Zrotation Xrotation Yrotation
                JOINT lRing2
                {
                  OFFSET 2.60934 -0.819778 -0.0198488
                  CHANNELS 3 Zrotation Xrotation Yrotation
                  End Site
                  {
                    OFFSET 2.33842 -0.294052 0.168128
                  }
                }
              }
              JOINT lPinky1
              {
                OFFSET 8.27202 -0.0477905 -0.4584
                CHANNELS 3 Zrotation Xrotation Yrotation
                JOINT lPinky2
                {
                  OFFSET 1.82734 -0.647385 -0.700984
                  CHANNELS 3 Zrotation Xrotation Yrotation
                  End Site
                  {
                    OFFSET 1.69225 -0.51767 -0.607171
                  }
                }
              }
            }
          }
        }
      }
    }
  }
  JOINT rButtock
  {
    OFFSET -8.77824 4.35084 1.2192
    CHANNELS 3 Zrotation Xrotation Yrotation
    JOINT rThigh
    {
      OFFSET 0 -1.70687 -2.19456
      CHANNELS 3 Zrotation Xrotation Yrotation
      JOINT rShin
      {
        OFFSET 0 -36.8199 0.73152
        CHANNELS 3 Zrotation Xrotation Yrotation
        JOINT rFoot
        {
          OFFSET 0.73152 -45.1104 -5.12064
          CHANNELS 3 Zrotation Xrotation Yrotation
          End Site
          {
            OFFSET -1.1221 -3.69964 12.103
          }
        }
      }
    }
  }
  JOINT lButtock
  {
    OFFSET 8.77824 4.35084 1.2192
    CHANNELS 3 Zrotation Xrotation Yrotation
    JOINT lThigh
    {
      OFFSET 0 -1.70687 -2.19456
      CHANNELS 3 Zrotation Xrotation Yrotation
      JOINT lShin
      {
        OFFSET 0 -36.8199 0.73152
        CHANNELS 3 Zrotation Xrotation Yrotation
        JOINT lFoot
        {
          OFFSET -0.73152 -45.1104 -5.12064
          CHANNELS 3 Zrotation Xrotation Yrotation
          End Site
          {
            OFFSET 1.1221 -3.69964 12.103
          }
        }
      }
    }
  }
}
MOTION
Frames:	7
Frame Time:	0.03333
15.6298 53.9678 -2.5772 4.131668 11.209729 10.398077 -5.203621 18.821533 -129.86269 10.291895 1.569812 148.755391 10.290461 29.54483 127.962576 -27.608641 30.335849 -81.378247 -0.004786 0.0 -0.00022 0.000839 0.0 0.000473 -148.839219 25.777002 153.773244 2.832577 -52.220352 38.331237 -113.176196 76.528585 -16.647861 158.289338 -39.365328 137.751717 -111.186892 34.187111 65.478706 14.910003 -30.969516 25.142862 39.297373 -59.67368 0.527122 -5.851247 29.887719 6.30972 -150.064196 20.827469 136.48227 20.48361 -46.398737 1.212537 -145.116525 -0.315071 -179.030223 10.264091 0.130818 -8.979186 -103.599477 -45.181463 -101.767714 -149.008056 19.584872 -144.126772 156.835891 -13.24839 -163.802095 45.035973 10.938909 3.581011 166.794011 35.254767 81.019406 6.493358 -5.423206 3.032638 161.572463 0.726525 -89.149202 24.74998 -32.866151 -10.048085 145.862479 -7.180312 -118.928646 -41.19419 -51.543698 1.859273 -22.765377 -59.796341 -0.703711 33.210729 54.310565 -27.779483 145.115135 -0.390251 179.006908 150.888975 -32.580763 173.67416 142.939991 5.341184 139.817825 -20.686784 53.722032 -6.264782 0.007957 -9e-05 0.004875 -59.796694 -57.431623 -159.188625 -89.357574 -14.182168 -174.792046 157.571951 81.35813 116.863461 -0.001427 -0.001023 -0.001916 33.785484 -55.983513 -169.624805 67.906457 -71.818344 149.445413 108.184834 -50.945522 -176.134727
14.7861 54.9974 -2.9926999999999997 4.096507 13.774751 11.258289 -5.118562 18.603314 -131.929527 10.144019 1.993058 150.205112 -1.837482 34.347176 -155.813744 18.314299 41.591884 -170.574609 6.4e-05 0.0 3.3e-05 6.4e-05 0.0 3.3e-05 -5.942157 25.294803 7.121816 137.279307 -66.997482 83.654234 139.066256 -86.016713 2.050985 164.850479 -26.518506 142.263698 14.168843 -14.095338 -0.435767 -12.861606 11.549849 2.165238 2.913277 -4.872782 -1.559486 29.485754 -24.373874 -0.439453 -156.331684 5.968641 140.857368 -165.978673 -13.079822 143.641846 -145.033846 -4.248048 -177.790106 11.653933 15.390156 -7.183219 2.880891 8.051973 2.630331 0.725521 -4.296589 -1.377066 -3.75288 -33.404039 6.460517 -75.393866 42.889833 26.017798 158.547785 15.484721 -33.095646 -176.815352 -23.722987 -143.579689 160.06229 2.204496 -88.879255 -134.192996 -48.421783 -87.597226 163.219754 -38.415882 -122.603313 5.610889 31.314604 -0.131025 132.301306 44.95638 -121.377137 170.403164 -26.707684 -143.968888 145.120103 0.253772 179.207239 -11.067134 63.581405 0.613738 131.677073 -19.468852 129.225816 26.289676 -41.292406 28.087655 179.997135 75.748273 0.003373 153.886165 5.115925 -93.532381 -89.953904 -19.144268 -7.966811 91.827475 61.855748 4.538524 -179.994451 75.747922 -0.0057 -160.895057 14.925709 -18.594115 2.506508 78.104452 72.190485 57.752269 -78.540044 -32.099629
13.8823 56.0655 -3.2571999999999997 3.994038 16.813033 12.151518 -5.172391 21.9404 -37.438241 3.617508 -12.864009 55.315923 5.459566 15.56521 37.208991 -19.836806 -18.443409 -1.612046 -0.004594 0.0 -0.001918 0.001037 -0.0 -0.001249 -0.432592 2.516287 0.569895 -102.062587 55.826091 154.667941 -177.922042 -81.097045 -82.946691 -8.726435 31.928767 1.987657 -164.886705 -2.560317 89.605572 155.238635 -36.81457 94.59327 -8.154781 11.966343 5.161338 9.43996 1.043649 -0.431281 -152.240149 16.138483 138.095431 176.88151 -53.693705 139.16394 -0.097995 -4.762858 -1.502643 -155.763444 -14.66439 173.610057 -132.018177 -18.896764 -129.554604 -38.20444 -47.594233 -39.506029 -0.252083 -1.539679 0.339047 -60.903374 29.101114 -8.09029 -120.331611 45.100184 -80.066656 157.223644 41.682563 -130.626287 -49.209665 -40.31662 -11.831135 36.765795 24.978618 -8.044888 145.787098 -7.050723 -118.892908 -44.558053 -54.450168 -0.423387 -3.833723 -11.744353 1.835795 167.284971 -17.080849 -144.21503 -0.005346 1.008403 -0.318198 -10.800092 -9.020066 1.159689 -16.749657 58.697901 -12.629771 119.191676 -39.517633 116.865422 -179.999274 75.749517 -0.001412 154.660592 8.193803 -16.757886 -79.941341 56.232634 7.282065 137.775133 18.816928 -34.300165 -179.995445 75.749517 -0.004391 -160.444273 12.341345 -73.984403 -75.234005 20.30982 1.825026 28.623677 41.885125 62.820643
12.9682 57.0948 -3.3674999999999997 3.714152 20.49827 12.848056 -3.711728 21.037426 -63.687193 7.77383 -10.415018 80.406768 11.582655 26.795167 113.022991 -33.233296 23.159556 -69.423358 -0.00536 0.0 -0.001163 0.001195 -0.0 -0.001814 -157.766635 -21.803432 165.410229 -32.8978 -17.267748 -9.085633 -175.478315 -15.27078 -81.935766 -8.509791 31.146501 1.874335 179.950274 -17.516235 89.259074 -162.062865 0.155404 89.01699 -170.945577 -49.551491 120.905736 165.388821 -60.061925 100.889101 -5.840019 15.281433 3.742829 -52.633064 61.650875 46.092526 -145.120406 0.694546 -179.346242 -144.196155 -52.606603 -166.399231 -0.991777 -2.521758 -0.917278 4.376889 5.345893 1.55927 157.593768 -20.054683 -165.08705 -146.521858 -8.861815 168.991678 -19.244794 -22.966794 -113.656971 14.665113 19.295774 -0.704076 66.061922 37.622962 -33.965523 159.926299 -41.771271 -84.876523 167.810821 -45.388516 -121.833156 5.773483 32.015836 -0.874714 -37.889601 -72.752114 -12.078416 1.446486 12.376206 -2.270389 145.113023 -0.430171 178.992621 -1.489164 -47.112391 19.193782 164.191346 75.508533 150.298212 -41.904791 80.046225 6.568388 179.843838 75.748657 0.119838 156.285819 8.115704 -166.177727 -69.049309 -79.272337 -145.842979 83.668407 74.655416 -175.195058 0.000473 -0.000296 0.00046 36.174693 -59.419061 70.553997 65.062115 48.364285 -145.746338 51.940426 50.226392 29.718107
12.0487 58.1121 -3.3832 3.311479 24.52707 13.242706 -3.655897 17.956669 -144.828663 9.222988 3.782227 159.369971 11.273124 28.11929 121.627084 -32.111242 28.171133 -77.866319 0.002082 0.0 0.000327 -0.003564 0.0 -0.000309 -136.586322 48.656517 140.669376 152.268152 -14.996951 136.267187 -176.886216 -38.083917 45.145262 164.232936 -28.291134 141.767221 4.753724 -4.736413 -0.538074 -9.540207 9.922508 5.177253 -97.262769 39.049941 82.036311 -169.633729 -19.658157 115.176341 -10.272661 24.50302 7.082824 -161.056365 1.612264 142.54895 -0.012185 -1.190657 -0.375 9.438195 11.64513 1.50207 -7.903953 -17.071046 -7.45323 -11.179253 -28.107308 -12.763108 158.964218 -57.141831 -172.621261 78.924104 -44.921319 68.230779 155.237449 -2.050162 73.908477 1.632455 -20.571524 3.533127 -55.892851 -43.30147 -15.655811 146.15108 -78.362311 -160.549487 9.132275 13.22582 -5.841956 169.241684 -22.146198 -109.487907 13.917212 30.710231 -10.035522 160.92519 1.928414 -142.489642 145.106459 3.822328 -179.671736 -11.803968 46.222145 3.65015 157.683427 58.511255 150.635796 25.912299 -40.190111 26.358909 -179.9837 75.748976 -0.011892 158.592065 10.842426 -126.307952 -80.756343 -39.934261 -169.640967 -46.909349 -32.600267 -126.672633 -179.995349 75.748977 -0.002832 -162.335514 6.936763 115.586638 80.311202 -29.150276 121.416647 -89.639353 59.214294 174.032718
11.2683 59.048 -3.3307 2.895552 28.724475 13.36718 -6.885022 20.024627 85.31088 -10.349771 0.504398 -71.108981 7.644511 32.384886 154.558937 -17.646953 43.258116 -112.757442 -0.002527 -0.0 0.002292 -0.002041 0.0 -0.003307 -12.469887 40.318659 14.218507 -127.872767 -2.928557 144.220119 -173.694967 13.690235 -82.204498 -7.971874 28.724231 1.532852 -168.314447 -5.993215 89.880636 -135.140512 9.080741 66.759062 -161.342161 -35.2985 122.704917 -9.916479 35.802417 2.937816 -164.211679 -17.909379 144.6123 3.646624 -1.369838 0.181109 -145.084614 -2.331827 -178.394679 -156.151092 12.694626 179.268581 -123.904181 -30.133769 -121.70005 -143.956965 3.788087 -140.026777 -0.883679 -5.666794 1.21464 -65.087348 -6.379961 -5.232985 179.037241 -6.31385 -39.387767 176.500484 -1.895429 -142.753716 -172.350313 -24.339469 -87.614592 158.999685 3.860848 -90.500201 138.844922 4.36264 -115.08264 -17.46485 -17.275543 10.206929 150.924098 19.035428 -137.130238 1.135922 12.185298 -2.443054 145.12175 0.631826 179.32641 -12.078164 45.482131 3.760871 -14.08667 48.665803 -11.415464 147.80536 10.428187 142.985485 -179.996665 75.749403 -0.003485 160.506103 14.595761 -68.549579 -76.304547 15.090094 147.809507 -19.032403 -31.072052 -85.0936 -179.993855 75.749908 -0.003384 -162.016232 5.034405 94.615271 82.325455 -11.377016 80.309579 107.481152 16.745464 179.161034
10.6659 59.853199999999994 -3.2177 2.599289 32.927834 13.312075 -3.820966 22.076056 6.186923 -4.741559 -11.514754 5.215219 8.365613 16.811353 52.439438 -28.850837 -12.998439 -21.168815 -0.000944 -0.0 0.000188 -0.000944 -0.0 0.000188 -155.93478 -6.419346 162.444817 150.10142 -29.485251 173.727068 2.146432 -22.248237 100.281021 -8.317603 29.166147 1.571374 -169.812776 -7.494804 89.936863 0.036406 -53.232383 9.36086 -149.904421 -14.47783 120.632313 -171.804028 -34.936278 117.687716 -163.075027 -14.251539 144.240045 -27.360293 50.337083 22.737035 -0.065237 -3.732799 -1.176964 -147.492701 46.32228 162.400681 -5.958955 -13.47103 -5.59743 -147.039607 11.568628 -143.640387 -3.696321 -60.795141 12.627428 -33.089432 -15.855455 37.649196 -160.246516 -52.522079 -20.019826 172.507188 10.188147 -141.159514 -1.074431 -1.063856 0.155622 -1.301807 -1.996479 1.809683 175.00334 -54.213832 -119.281297 150.903233 -1.451851 -117.870531 31.73064 49.143747 -25.833163 166.281343 -14.572596 -144.024223 145.114368 -0.457534 178.983483 -12.180685 41.784931 4.236691 -3.538477 10.042708 -3.219732 -18.14778 54.954379 -9.500047 179.994268 75.748725 0.00405 159.903284 16.952786 91.210457 80.799684 4.449716 23.146359 75.996944 65.62216 -174.766244 0.000325 0.000917 0.000662 48.498995 -64.957426 150.83703 68.178547 -19.432798 -93.225029 -104.392679 -7.835881 20.907496
